<?xml version="1.0" encoding="UTF-8"?>
<svg xmlns="http://www.w3.org/2000/svg" viewBox="0 0 256 256">
  <!-- Background circle (matches site dark theme) -->
  <circle cx="128" cy="128" r="120" fill="#0b0f14" />

  <!-- Aperture-like shutter blades (neutral, matching header icon vibe) -->
  <g fill="#ffffff" fill-opacity="0.85">
    <path d="M128 28 L172 84 L156 92 L128 48 Z" />
    <path d="M128 28 L172 84 L156 92 L128 48 Z" transform="rotate(60 128 128)" />
    <path d="M128 28 L172 84 L156 92 L128 48 Z" transform="rotate(120 128 128)" />
    <path d="M128 28 L172 84 L156 92 L128 48 Z" transform="rotate(180 128 128)" />
    <path d="M128 28 L172 84 L156 92 L128 48 Z" transform="rotate(240 128 128)" />
    <path d="M128 28 L172 84 L156 92 L128 48 Z" transform="rotate(300 128 128)" />
  </g>
</svg>
